{
  "accessors": [
    {
      "bufferView": 2,
      "componentType": 5126,
      "count": 2139,
      "max": [
        128.33197021484375,
        347.8485412597656,
        128.33197021484375
      ],
      "min": [
        -128.33197021484375,
        -227.2118377685547,
        -128.33197021484375
      ],
      "type": "VEC3"
    },
    {
      "bufferView": 2,
      "byteOffset": 25668,
      "componentType": 5126,
      "count": 2139,
      "max": [
        0.9974300861358643,
        0.998602569103241,
        0.9974300861358643
      ],
      "min": [
        -0.9974300861358643,
        -0.9974285364151001,
        -0.9974300861358643
      ],
      "type": "VEC3"
    },
    {
      "bufferView": 3,
      "componentType": 5126,
      "count": 2139,
      "max": [
        0.9987159371376038,
        0.9894989132881165,
        0.999302089214325,
        1.0
      ],
      "min": [
        -0.9987159371376038,
        -0.9894991517066956,
        -0.9987159371376038,
        -1.0
      ],
      "type": "VEC4"
    },
    {
      "bufferView": 1,
      "componentType": 5126,
      "count": 2139,
      "max": [
        0.969673752784729,
        0.987734317779541
      ],
      "min": [
        0.010401636362075806,
        0.029810909181833267
      ],
      "type": "VEC2"
    },
    {
      "bufferView": 0,
      "componentType": 5125,
      "count": 7500,
      "type": "SCALAR"
    },
    {
      "bufferView": 2,
      "byteOffset": 51336,
      "componentType": 5126,
      "count": 1313,
      "max": [
        97.95707702636719,
        81.58926391601563,
        97.9570541381836
      ],
      "min": [
        -97.95700073242188,
        0.0,
        -97.95707702636719
      ],
      "type": "VEC3"
    },
    {
      "bufferView": 2,
      "byteOffset": 67092,
      "componentType": 5126,
      "count": 1313,
      "max": [
        0.9988617300987244,
        1.0,
        0.9988617300987244
      ],
      "min": [
        -0.9988601803779602,
        -1.0,
        -0.9988601803779602
      ],
      "type": "VEC3"
    },
    {
      "bufferView": 3,
      "byteOffset": 34224,
      "componentType": 5126,
      "count": 1313,
      "max": [
        0.9999972581863403,
        0.7820150256156921,
        0.999997079372406,
        1.0
      ],
      "min": [
        -0.9999969005584717,
        -0.8939634561538696,
        -0.9999971985816956,
        1.0
      ],
      "type": "VEC4"
    },
    {
      "bufferView": 1,
      "byteOffset": 17112,
      "componentType": 5126,
      "count": 1313,
      "max": [
        0.9799234867095947,
        0.9809479713439941
      ],
      "min": [
        0.8182735443115234,
        0.6490187644958496
      ],
      "type": "VEC2"
    },
    {
      "bufferView": 0,
      "byteOffset": 30000,
      "componentType": 5125,
      "count": 6144,
      "type": "SCALAR"
    }
  ],
  "asset": {
    "extras": {
      "author": "desvat (https://sketchfab.com/desvat)",
      "license": "CC-BY-4.0 (http://creativecommons.org/licenses/by/4.0/)",
      "source": "https://sketchfab.com/3d-models/altar-926392535db34f08bb14871029f4003c",
      "title": "Altar"
    },
    "generator": "Sketchfab-12.66.0",
    "version": "2.0"
  },
  "bufferViews": [
    {
      "buffer": 0,
      "byteLength": 54576,
      "name": "floatBufferViews",
      "target": 34963
    },
    {
      "buffer": 0,
      "byteLength": 27616,
      "byteOffset": 54576,
      "byteStride": 8,
      "name": "floatBufferViews",
      "target": 34962
    },
    {
      "buffer": 0,
      "byteLength": 82848,
      "byteOffset": 82192,
      "byteStride": 12,
      "name": "floatBufferViews",
      "target": 34962
    },
    {
      "buffer": 0,
      "byteLength": 55232,
      "byteOffset": 165040,
      "byteStride": 16,
      "name": "floatBufferViews",
      "target": 34962
    }
  ],
  "buffers": [
    {
      "byteLength": 220272,
      "uri": "scene.bin"
    }
  ],
  "images": [
    {
      "uri": "textures/Material.001_baseColor.png"
    },
    {
      "uri": "textures/Material.001_metallicRoughness.png"
    },
    {
      "uri": "textures/Material.001_normal.png"
    }
  ],
  "materials": [
    {
      "doubleSided": true,
      "name": "Material.001",
      "normalTexture": {
        "index": 2,
        "scale": 0.8004954268292683
      },
      "occlusionTexture": {
        "index": 1
      },
      "pbrMetallicRoughness": {
        "baseColorTexture": {
          "index": 0
        },
        "metallicRoughnessTexture": {
          "index": 1
        }
      }
    }
  ],
  "meshes": [
    {
      "name": "Cube_Material.001_0",
      "primitives": [
        {
          "attributes": {
            "NORMAL": 1,
            "POSITION": 0,
            "TANGENT": 2,
            "TEXCOORD_0": 3
          },
          "indices": 4,
          "material": 0,
          "mode": 4
        }
      ]
    },
    {
      "name": "Sphere_Material.001_0",
      "primitives": [
        {
          "attributes": {
            "NORMAL": 6,
            "POSITION": 5,
            "TANGENT": 7,
            "TEXCOORD_0": 8
          },
          "indices": 9,
          "material": 0,
          "mode": 4
        }
      ]
    }
  ],
  "nodes": [
    {
      "children": [
        1
      ],
      "matrix": [
        0.0014993742296037782,
        -1.5480718463128844e-19,
        0.0006971895790197462,
        0.0,
        0.0006971895790197462,
        3.329279584471441e-19,
        -0.0014993742296037782,
        0.0,
        0.0,
        0.0016535405302420259,
        3.671597537651174e-19,
        0.0,
        -2.356880941078998e-05,
        -3.337990830626493e-21,
        1.5032974260975607e-05,
        1.0
      ],
      "name": "Sketchfab_model"
    },
    {
      "children": [
        2
      ],
      "matrix": [
        1.0,
        0.0,
        0.0,
        0.0,
        0.0,
        0.0,
        1.0,
        0.0,
        0.0,
        -1.0,
        0.0,
        0.0,
        0.0,
        0.0,
        0.0,
        1.0
      ],
      "name": "ae8f8cb45d5842d8ba23f0e984185db4.fbx"
    },
    {
      "children": [
        3,
        5
      ],
      "name": "RootNode"
    },
    {
      "children": [
        4
      ],
      "name": "Cube"
    },
    {
      "mesh": 0,
      "name": "Cube_Material.001_0"
    },
    {
      "children": [
        6
      ],
      "matrix": [
        1.0,
        0.0,
        0.0,
        0.0,
        0.0,
        1.0,
        0.0,
        0.0,
        0.0,
        0.0,
        1.0,
        0.0,
        0.0,
        328.2871398925781,
        0.0,
        1.0
      ],
      "name": "Sphere"
    },
    {
      "mesh": 1,
      "name": "Sphere_Material.001_0"
    }
  ],
  "samplers": [
    {
      "magFilter": 9729,
      "minFilter": 9987,
      "wrapS": 10497,
      "wrapT": 10497
    }
  ],
  "scene": 0,
  "scenes": [
    {
      "name": "Sketchfab_Scene",
      "nodes": [
        0
      ]
    }
  ],
  "textures": [
    {
      "sampler": 0,
      "source": 0
    },
    {
      "sampler": 0,
      "source": 1
    },
    {
      "sampler": 0,
      "source": 2
    }
  ]
}
